<svg xmlns="http://www.w3.org/2000/svg" viewBox="0 0 108.0 108.0">
<path d="M54,54m-10,0a10,10 0,1 1,20 0a10,10 0,1 1,-20 0" fill="#FFFFFF" />
<path d="M54,54m-18,0a18,18 0,1 1,36 0a18,18 0,1 1,-36 0" fill="none" stroke="#F1D56D" stroke-width="2.5" />
<path d="M54,26 A28,28 0 0 1 78,40 M82,54 A28,28 0 0 1 78,68 M54,82 A28,28 0 0 1 30,68 M26,54 A28,28 0 0 1 30,40" fill="none" stroke="#CFB53B" stroke-width="3.0" stroke-linecap="square" />
<path d="M54,54m-36,0a36,36 0,1 1,72 0a36,36 0,1 1,-72 0" fill="none" stroke="#F1D56D" stroke-width="2.0" />
<path d="M54,12 L57,18 L51,18 Z" fill="#CFB53B" />
<path d="M54,96 L57,90 L51,90 Z" fill="#CFB53B" />
<path d="M12,54 L18,57 L18,51 Z" fill="#CFB53B" />
<path d="M96,54 L90,57 L90,51 Z" fill="#CFB53B" />
</svg>