<svg xmlns="http://www.w3.org/2000/svg" viewBox="0 0 24.0 24.0">
<path d="M8,6c-2.49,0 -4,2.43 -4,5.2C4,15.5 7.11,19 10.5,19c2.45,0 4.5,-1.88 4.5,-4.2 0,-2.02 -1.39,-4.21 -3.21,-6.62C10.65,6.66 9.49,6 8,6z" fill="#2E7D32" stroke="#3B2B20" stroke-width="0.35" stroke-linecap="round" stroke-linejoin="round" />
<path d="M8.8,7.7c-1.67,0 -2.8,1.55 -2.8,3.53C6,14.1 8.19,16.5 10.5,16.5c1.18,0 2,-0.83 2,-1.88 0,-1.32 -1.02,-2.98 -2.6,-5.03 -0.43,-0.57 -0.77,-1.89 -1.1,-1.89z" fill="#66BB6A" stroke="#3B2B20" stroke-width="0.35" stroke-linecap="round" stroke-linejoin="round" />
<path d="M10.6,11.9a1.9,2.2 0,1 0,0.01 0z" fill="#6D4C41" stroke="#3B2B20" stroke-width="0.35" stroke-linecap="round" stroke-linejoin="round" />
<path d="M14.2,8.2c0,-2.34 1.6,-4.2 3.6,-4.2 1.1,0 2.1,0.58 2.8,1.53 -0.62,0.19 -1.2,0.58 -1.68,1.1 0.11,-0.01 0.21,-0.03 0.32,-0.03 1.53,0 2.76,1.55 2.76,3.47 0,2.32 -1.8,4.21 -4.03,4.21 -2.09,0 -3.77,-1.83 -3.77,-4.08z" fill="#2E7D32" stroke="#3B2B20" stroke-width="0.35" stroke-linecap="round" stroke-linejoin="round" />
<path d="M17.4,6.2c1.16,0 2.1,1.1 2.1,2.47 0,1.65 -1.13,3 -2.53,3 -1.32,0 -2.37,-1.28 -2.37,-2.86 0,-1.49 1.25,-2.61 2.8,-2.61z" fill="#81C784" stroke="#3B2B20" stroke-width="0.35" stroke-linecap="round" stroke-linejoin="round" />
</svg>