<svg xmlns="http://www.w3.org/2000/svg" viewBox="0 0 24.0 24.0">
<path d="M3.2,12.6h12.2c1.1,0 2,0.9 2,2v1.8c0,1.1 -0.9,2 -2,2H3.2c-1.1,0 -2,-0.9 -2,-2v-1.8c0,-1.1 0.9,-2 2,-2z" fill="#A86F45" stroke="#2D1B12" stroke-width="0.8" stroke-linecap="round" stroke-linejoin="round" />
<path d="M6.6,8.7h13c1.1,0 2,0.9 2,2v1.8c0,1.1 -0.9,2 -2,2h-13c-1.1,0 -2,-0.9 -2,-2v-1.8c0,-1.1 0.9,-2 2,-2z" fill="#C68656" stroke="#2D1B12" stroke-width="0.85" stroke-linecap="round" stroke-linejoin="round" />
<path d="M19.8,9.5a2.1,2.1 0,1 1,0,4.2 2.1,2.1 0,1 1,0,-4.2z" fill="#E7B282" stroke="#2D1B12" stroke-width="0.7" />
<path d="M19.8,10.2a1.35,1.35 0,1 1,0,2.7 1.35,1.35 0,1 1,0,-2.7z" fill="#D49A68" stroke="#7A4E32" stroke-width="0.35" />
<path d="M19.8,10.95a0.6,0.6 0,1 1,0,1.2 0.6,0.6 0,1 1,0,-1.2z" fill="#BE7C4F" />
<path d="M3.4,13.2a1.65,1.65 0,1 1,0,3.3 1.65,1.65 0,1 1,0,-3.3z" fill="#DCA877" stroke="#2D1B12" stroke-width="0.65" />
<path d="M3.4,13.9a0.95,0.95 0,1 1,0,1.9 0.95,0.95 0,1 1,0,-1.9z" fill="#C98D5C" />
<path d="M8.2,10.6h8.9M8.7,11.8h7.8M9.6,13h6.2" fill="#000000" fill-opacity="0.0" stroke="#8A5A3A" stroke-width="0.45" stroke-linecap="round" />
<path d="M7.2,9.3h8.2c0.4,0 0.5,0.5 0.2,0.7l-0.9,0.8c-0.2,0.2 -0.4,0.2 -0.6,0.2H6.9c-0.3,0 -0.5,-0.4 -0.2,-0.6l0.8,-0.8c0.1,-0.2 0.3,-0.3 0.5,-0.3z" fill="#FFFFFF" fill-opacity="0.4" />
</svg>