<svg xmlns="http://www.w3.org/2000/svg" viewBox="0 0 24.0 24.0">
<path d="M9.2,4.2c0.7,0.8 0.7,1.5 0.1,2.2 -0.5,0.6 -0.6,1.1 -0.1,1.8" fill="#B0E0E6" stroke="#4E8CA0" stroke-width="0.55" stroke-linecap="round" />
<path d="M12,3.5c0.8,0.9 0.8,1.7 0.1,2.5 -0.6,0.7 -0.7,1.3 -0.1,2.1" fill="#B0E0E6" stroke="#4E8CA0" stroke-width="0.55" stroke-linecap="round" />
<path d="M5.2,8.6h11.2v4.9c0,2 -1.6,3.7 -3.7,3.7H8.9c-2,0 -3.7,-1.6 -3.7,-3.7V8.6z" fill="#8D6E63" stroke="#2D1B12" stroke-width="0.75" stroke-linejoin="round" />
<path d="M6.2,9.5h9.2v1.1H6.2z" fill="#5D4037" />
<path d="M16.3,10h1.5c1.3,0 2.2,0.9 2.2,2s-0.9,2 -2.2,2h-1.5v-1.4h1.2c0.6,0 1,-0.3 1,-0.7s-0.4,-0.7 -1,-0.7h-1.2V10z" fill="#B58A7A" stroke="#2D1B12" stroke-width="0.6" stroke-linejoin="round" />
<path d="M4.3,18.1h13.8c0.7,0 1.3,0.5 1.3,1.1s-0.6,1.1 -1.3,1.1H4.3c-0.7,0 -1.3,-0.5 -1.3,-1.1s0.6,-1.1 1.3,-1.1z" fill="#D7CCC8" stroke="#5D4037" stroke-width="0.45" />
<path d="M7.1,10.2h3.6c0.4,0 0.5,0.5 0.2,0.7l-0.8,0.7c-0.1,0.1 -0.2,0.1 -0.4,0.1H6.9c-0.3,0 -0.4,-0.3 -0.2,-0.5l0.4,-0.7z" fill="#FFFFFF" fill-opacity="0.4" />
</svg>