<svg xmlns="http://www.w3.org/2000/svg" viewBox="0 0 24.0 24.0">
<path d="M6,8c0,-2.76 2.69,-5 6,-5s6,2.24 6,5v4c0,4.42 -2.69,8 -6,8s-6,-3.58 -6,-8V8z" fill="#A66A43" stroke="#3B2B20" stroke-width="0.35" stroke-linecap="round" stroke-linejoin="round" />
<path d="M8,12.5c0,-1.93 1.79,-3.5 4,-3.5s4,1.57 4,3.5V16c0,1.1 -0.9,2 -2,2h-4c-1.1,0 -2,-0.9 -2,-2v-3.5z" fill="#F4D7C2" stroke="#3B2B20" stroke-width="0.35" stroke-linecap="round" stroke-linejoin="round" />
<path d="M7,6 L4,4 L5,8 Z M17,6 L20,4 L19,8 Z" fill="#E8C26B" stroke="#3B2B20" stroke-width="0.35" stroke-linecap="round" stroke-linejoin="round" />
<path d="M8,9c-1.1,0 -2,-0.9 -2,-2s0.9,-2 2,-2v4zM16,9c1.1,0 2,-0.9 2,-2s-0.9,-2 -2,-2v4z" fill="#5A3826" stroke="#3B2B20" stroke-width="0.35" stroke-linecap="round" stroke-linejoin="round" />
<path d="M9,12.5a1,1 0,1 0,0.01 0zM15,12.5a1,1 0,1 0,0.01 0z" fill="#2B1A12" stroke="#3B2B20" stroke-width="0.35" stroke-linecap="round" stroke-linejoin="round" />
<path d="M10,14.5a1,1.4 0,1 0,0.01 0zM14,14.5a1,1.4 0,1 0,0.01 0z" fill="#8A5A3C" stroke="#3B2B20" stroke-width="0.35" stroke-linecap="round" stroke-linejoin="round" />
</svg>