<svg xmlns="http://www.w3.org/2000/svg" viewBox="0 0 24.0 24.0">
<path d="M10.4,3.2h3.2v2.2h-3.2z" fill="#6D4C41" stroke="#2D1B12" stroke-width="0.55" />
<path d="M9,5.3h6c0.8,0 1.5,0.7 1.5,1.5v10.8c0,1.3 -1.1,2.4 -2.4,2.4h-4.2c-1.3,0 -2.4,-1.1 -2.4,-2.4V6.8c0,-0.8 0.7,-1.5 1.5,-1.5z" fill="#AED581" stroke="#2D1B12" stroke-width="0.7" stroke-linejoin="round" />
<path d="M8.5,11.2h7v5.9c0,0.9 -0.7,1.6 -1.6,1.6h-3.8c-0.9,0 -1.6,-0.7 -1.6,-1.6v-5.9z" fill="#9CCC65" />
<path d="M9.4,8.2h5.2c0.4,0 0.7,0.3 0.7,0.7v1.6c0,0.4 -0.3,0.7 -0.7,0.7H9.4c-0.4,0 -0.7,-0.3 -0.7,-0.7V8.9c0,-0.4 0.3,-0.7 0.7,-0.7z" fill="#FFF3C4" stroke="#8E6B52" stroke-width="0.35" />
<path d="M12.1,8.85a0.95,0.7 0,1 0,0.01 0z" fill="#558B2F" />
<path d="M12.8,8.45c0.4,-0.5 0.8,-0.7 1.2,-0.7 0.2,0 0.3,0.2 0.1,0.3 -0.4,0.3 -0.7,0.6 -0.9,1z" fill="#2E7D32" />
<path d="M9.5,6.2h1.4c0.3,0 0.4,0.4 0.2,0.5l-0.7,0.7c-0.1,0.1 -0.2,0.1 -0.3,0.1H9.2c-0.2,0 -0.3,-0.2 -0.2,-0.4l0.3,-0.7z" fill="#FFFFFF" fill-opacity="0.4" />
</svg>