<svg xmlns="http://www.w3.org/2000/svg" viewBox="0 0 24.0 24.0">
<path d="M8.6,4.1h6.8v2.2H8.6z" fill="#FFB74D" stroke="#2D1B12" stroke-width="0.6" />
<path d="M9,6.3h6c0.9,0 1.6,0.7 1.6,1.6v10.5c0,0.9 -0.7,1.6 -1.6,1.6H9c-0.9,0 -1.6,-0.7 -1.6,-1.6V7.9c0,-0.9 0.7,-1.6 1.6,-1.6z" fill="#FFA726" stroke="#2D1B12" stroke-width="0.75" stroke-linejoin="round" />
<path d="M8.1,10.1h7.8v4.1H8.1z" fill="#FFE082" />
<path d="M10.2,11.2h1.8v1h-1.8zM10.9,10.5h0.4v2.3h-0.4z" fill="#F57C00" />
<path d="M13.1,12.3a1,1 0,1 0,0.01 0z" fill="#F57C00" />
<path d="M14.2,9.1a0.4,0.4 0,1 0,0.01 0zM15.2,10a0.3,0.3 0,1 0,0.01 0zM14.7,11a0.25,0.25 0,1 0,0.01 0z" fill="#FFF3E0" />
<path d="M9.4,7.3h1.3c0.3,0 0.4,0.3 0.2,0.5l-0.8,1c-0.1,0.1 -0.2,0.1 -0.3,0.1H9.1c-0.2,0 -0.3,-0.2 -0.2,-0.4l0.3,-0.9z" fill="#FFFFFF" fill-opacity="0.4" />
</svg>