<svg xmlns="http://www.w3.org/2000/svg" viewBox="0 0 24.0 24.0">
<path d="M4,12c2,-3.5 5,-5.5 9,-5.5 2.8,0 5.1,0.97 7,2.8L17.8,12 20,14.7c-1.9,1.83 -4.2,2.8 -7,2.8 -4,0 -7,-2 -9,-5.5z" fill="#4FC3F7" stroke="#3B2B20" stroke-width="0.35" stroke-linecap="round" stroke-linejoin="round" />
<path d="M12,8l2.5,-2.2L15.5,9zM12,16l3.5,-1  -1,3z" fill="#0277BD" stroke="#3B2B20" stroke-width="0.35" stroke-linecap="round" stroke-linejoin="round" />
<path d="M20,9.3 22,12 20,14.7 18.5,12z" fill="#FFB74D" stroke="#3B2B20" stroke-width="0.35" stroke-linecap="round" stroke-linejoin="round" />
<path d="M8.8,11a1.3,1.3 0,1 0,0.01 0z" fill="#FFFFFF" stroke="#3B2B20" stroke-width="0.35" stroke-linecap="round" stroke-linejoin="round" />
<path d="M9.1,11.3a0.6,0.6 0,1 0,0.01 0z" fill="#263238" stroke="#3B2B20" stroke-width="0.35" stroke-linecap="round" stroke-linejoin="round" />
</svg>