<svg xmlns="http://www.w3.org/2000/svg" viewBox="0 0 24.0 24.0">
<path d="M5,10.2c0.6,-3.1 3.1,-5.2 6.2,-5.2 3.1,0 5.6,2.1 6.2,5.2H5z" fill="#D8A27A" stroke="#3B2B20" stroke-width="0.7" stroke-linejoin="round" />
<path d="M9.6,10.2h3.2v5.8c0,1 -0.8,1.8 -1.8,1.8h-0.5c-1,0 -1.8,-0.8 -1.8,-1.8v-5.8z" fill="#F2DEC7" stroke="#8E6B52" stroke-width="0.55" />
<path d="M13.2,13.1c0.4,-2.1 2.1,-3.5 4.2,-3.5 2.1,0 3.8,1.4 4.2,3.5h-8.4z" fill="#C78C62" stroke="#3B2B20" stroke-width="0.6" stroke-linejoin="round" />
<path d="M16.1,13.1h2.2v3.8c0,0.8 -0.6,1.4 -1.4,1.4h-0.2c-0.8,0 -1.4,-0.6 -1.4,-1.4v-3.8z" fill="#EED6BF" stroke="#8E6B52" stroke-width="0.45" />
<path d="M8.2,7.6a0.8,0.55 0,1 0,0.01 0zM11.6,6.9a0.9,0.6 0,1 0,0.01 0zM16.2,11.2a0.7,0.45 0,1 0,0.01 0z" fill="#FFFFFF" fill-opacity="0.4" />
</svg>