<svg xmlns="http://www.w3.org/2000/svg" viewBox="0 0 24.0 24.0">
<path d="M9,8c0,-2.21 1.79,-4 4,-4 2.76,0 5,2.24 5,5 0,1.82 -0.98,3.41 -2.43,4.28C15.84,16.55 13.21,19 10,19c-2.76,0 -5,-2.24 -5,-5 0,-2.53 1.88,-4.62 4.33,-4.95C9.12,8.72 9,8.37 9,8z" fill="#FFF8F1" stroke="#3B2B20" stroke-width="0.35" stroke-linecap="round" stroke-linejoin="round" />
<path d="M12,3l1.2,1.1L14.8,3.6 15.4,5.3 17,5.5 15.7,6.8 16,8.2 14.5,7.4 13.2,8.3 13,6.7 11.6,5.9 13.1,5.4z" fill="#E53935" stroke="#3B2B20" stroke-width="0.35" stroke-linecap="round" stroke-linejoin="round" />
<path d="M17.4,9.6l2.6,1.1 -2.6,1.1c-0.7,0.3 -1.4,-0.2 -1.4,-1.1 0,-0.8 0.7,-1.4 1.4,-1.1z" fill="#F6C244" stroke="#3B2B20" stroke-width="0.35" stroke-linecap="round" stroke-linejoin="round" />
<path d="M9,18l-1.2,2h1.3L10.2,18zM12,18l-1.2,2h1.3L13.2,18z" fill="#F4A261" stroke="#3B2B20" stroke-width="0.35" stroke-linecap="round" stroke-linejoin="round" />
<path d="M13.4,9.8a0.9,0.9 0,1 0,0.01 0z" fill="#2B1A12" stroke="#3B2B20" stroke-width="0.35" stroke-linecap="round" stroke-linejoin="round" />
</svg>