<svg xmlns="http://www.w3.org/2000/svg" viewBox="0 0 24.0 24.0">
<path d="M6,9c0,-3.31 2.69,-6 6,-6s6,2.69 6,6v4c0,3.31 -2.69,6 -6,6s-6,-2.69 -6,-6V9z" fill="#F8AFC5" stroke="#3B2B20" stroke-width="0.35" stroke-linecap="round" stroke-linejoin="round" />
<path d="M8.5,12c0,-1.38 1.57,-2.5 3.5,-2.5s3.5,1.12 3.5,2.5v2c0,1.1 -0.9,2 -2,2h-3c-1.1,0 -2,-0.9 -2,-2v-2z" fill="#F48FB1" stroke="#3B2B20" stroke-width="0.35" stroke-linecap="round" stroke-linejoin="round" />
<path d="M8,6 L5,4 5.5,8 Z M16,6 L18.5,4 19,8 Z" fill="#F8AFC5" stroke="#3B2B20" stroke-width="0.35" stroke-linecap="round" stroke-linejoin="round" />
<path d="M9,9.5a0.9,0.9 0,1 0,0.01 0zM15,9.5a0.9,0.9 0,1 0,0.01 0z" fill="#2B1A12" stroke="#3B2B20" stroke-width="0.35" stroke-linecap="round" stroke-linejoin="round" />
<path d="M10.6,13.2a0.8,1.1 0,1 0,0.01 0zM13.4,13.2a0.8,1.1 0,1 0,0.01 0z" fill="#C2185B" stroke="#3B2B20" stroke-width="0.35" stroke-linecap="round" stroke-linejoin="round" />
</svg>