<svg xmlns="http://www.w3.org/2000/svg" viewBox="0 0 48.0 48.0">
<path d="M8,38c4,-2.5 9.5,-3.8 17,-3.8 6.6,0 11.5,1.1 15,3.4v2.2H8z" fill="#000000" fill-opacity="0.133" />
<path d="M28,8c6.9,0 12.5,3.7 14,9.4v13.9c-1.3,0.5 -2.6,0.9 -4,1.2V18.2c-1.2,-4.8 -5.1,-7.8 -10,-7.8V8z" fill="#C62828" stroke="#7F1D1D" stroke-width="1.0" stroke-linecap="round" stroke-linejoin="round" />
<path d="M10,30 28,8c4.9,0 8.8,3 10,7.8L20,38.5c-4.9,0 -8.8,-3 -10,-8.5z" fill="#FFE58A" stroke="#2B1B12" stroke-width="1.1" stroke-linecap="round" stroke-linejoin="round" />
<path d="M10,30c1.2,5.5 5.1,8.5 10,8.5v-7.3c-3.1,0 -5.6,-1.9 -6.4,-5.3z" fill="#FFD24A" stroke="#2B1B12" stroke-width="1.0" stroke-linejoin="round" />
<path d="M20,31.2 38,15.8v14.5L20,38.5z" fill="#E9B73A" stroke="#8F6A1E" stroke-width="0.5" />
<path d="M38,15.8c2.2,0.3 3.6,1.4 4,3.2v12.3c-1.3,0.5 -2.6,0.9 -4,1.2z" fill="#D73A32" stroke="#7F1D1D" stroke-width="0.55" />
<path d="M22.6,20.5a2.1,1.6 0,1 0,0.01 0z" fill="#E5A820" stroke="#B37A10" stroke-width="0.45" />
<path d="M26.3,26.7a2.8,2.0 0,1 0,0.01 0z" fill="#E5A820" stroke="#B37A10" stroke-width="0.45" />
<path d="M17.4,29.6a1.9,1.4 0,1 0,0.01 0z" fill="#E5A820" stroke="#B37A10" stroke-width="0.35" />
<path d="M14,28.5 28.8,10.6c2.6,0.1 4.8,1.1 6.4,2.8L19.6,32.8c-2.5,-0.4 -4.6,-1.9 -5.6,-4.3z" fill="#FFFFFF" fill-opacity="0.4" />
</svg>